<svg width="34" height="33" viewBox="0 0 34 33" fill="none" xmlns="http://www.w3.org/2000/svg">
<path d="M20.7627 26V21.6825M20.7627 21.6825H15.1846H11.1278H7.6645C7.27004 21.6825 6.87678 21.639 6.49188 21.5526V21.5526C4.93184 21.2027 3.60964 20.1742 2.88654 18.7483L2.68265 18.3462C2.23387 17.4612 2 16.4829 2 15.4906V11.8413V8.46201C2 7.44921 2.24288 6.45117 2.70828 5.55163V5.55163C3.54722 3.93005 5.04512 2.74938 6.8178 2.31241L7.22848 2.21118C7.79753 2.07091 8.38146 2 8.96755 2H15.1846H20.7627H25.0406C25.5678 2 26.0934 2.05691 26.6084 2.16974L27.312 2.32392C29.2421 2.74682 30.8375 4.09806 31.5722 5.9322V5.9322C31.8548 6.63757 32 7.39043 32 8.1503V11V14.2742C32 15.0895 31.921 15.9029 31.7641 16.7029V16.7029C31.5304 17.8947 31.126 19.0466 30.5632 20.1229L30.0797 21.0476C29.4012 22.3452 28.581 23.5636 27.634 24.6805L24.8195 28L21.8308 30.9468C21.4342 31.3379 20.7627 31.0569 20.7627 30.5V30.5V21.6825Z" stroke="black" stroke-width="3"/>
<ellipse cx="10.73" cy="11.5" rx="1.53" ry="1.5" fill="black"/>
<path d="M24.8 11.5C24.8 12.3284 24.115 13 23.27 13C22.425 13 21.74 12.3284 21.74 11.5C21.74 10.6716 22.425 10 23.27 10C24.115 10 24.8 10.6716 24.8 11.5Z" fill="black"/>
<ellipse cx="16.97" cy="11.5" rx="1.53" ry="1.5" fill="black"/>
</svg>
