<svg id="splitsvg" version="1.1" xmlns="http://www.w3.org/2000/svg" xmlns:xlink="http://www.w3.org/1999/xlink" width="1380" height="181"><g id="svgg"><path id="path0" d="M75.276 34.128 C 74.711 34.847,68.269 47.788,68.130 48.484 C 67.955 49.361,68.165 49.417,72.001 49.521 C 76.356 49.638,75.439 49.642,79.727 49.491 L 83.364 49.364 83.419 48.801 C 83.495 48.015,76.423 33.868,75.860 33.681 C 75.759 33.647,75.496 33.848,75.276 34.128 M75.500 51.013 C 75.399 51.206,75.262 51.650,75.196 52.000 C 75.131 52.350,74.878 53.291,74.635 54.091 C 74.391 54.891,74.038 56.241,73.848 57.091 C 73.659 57.941,73.334 59.250,73.125 60.000 C 72.659 61.677,72.098 64.009,71.537 66.603 C 71.303 67.684,70.991 68.911,70.842 69.330 C 70.694 69.748,70.429 70.827,70.252 71.727 C 69.558 75.274,68.821 75.763,65.984 74.553 C 65.526 74.357,64.506 74.064,63.718 73.901 C 62.931 73.739,62.063 73.490,61.790 73.349 C 61.518 73.208,60.369 72.845,59.238 72.542 C 55.477 71.534,54.099 71.148,53.182 70.845 C 52.682 70.679,51.659 70.388,50.909 70.198 C 50.159 70.007,49.095 69.690,48.545 69.493 C 45.296 68.329,44.361 68.996,46.487 70.962 C 47.266 71.683,49.623 73.959,51.725 76.019 C 53.826 78.080,56.196 80.371,56.991 81.110 C 59.274 83.234,61.514 85.494,61.960 86.123 L 62.369 86.701 61.828 87.487 C 61.531 87.919,60.160 89.336,58.782 90.636 C 57.404 91.936,54.803 94.434,53.002 96.186 C 51.201 97.939,48.693 100.361,47.429 101.569 C 45.386 103.523,45.142 103.820,45.225 104.257 C 45.295 104.620,45.396 104.718,45.614 104.632 C 45.776 104.569,46.598 104.395,47.441 104.247 C 48.283 104.098,49.199 103.860,49.475 103.717 C 49.752 103.574,50.903 103.208,52.035 102.905 C 53.166 102.602,54.991 102.103,56.091 101.796 C 57.191 101.489,59.073 100.968,60.273 100.638 C 61.473 100.308,62.823 99.914,63.273 99.762 C 63.723 99.610,64.582 99.363,65.182 99.214 C 65.782 99.065,66.751 98.774,67.335 98.566 C 69.174 97.913,69.581 98.417,70.361 102.316 C 70.566 103.340,70.815 104.363,70.914 104.589 C 71.014 104.815,71.290 105.859,71.529 106.909 C 72.132 109.562,72.759 112.138,73.631 115.545 C 73.810 116.245,74.078 117.309,74.226 117.909 C 74.982 120.966,75.161 121.603,75.455 122.273 L 75.774 123.000 76.046 122.364 C 76.313 121.738,76.469 121.167,77.362 117.545 C 77.609 116.545,77.976 115.195,78.178 114.545 C 78.380 113.895,78.702 112.627,78.893 111.727 C 79.361 109.522,80.302 105.734,80.632 104.727 C 80.779 104.277,81.027 103.255,81.184 102.455 C 81.988 98.342,82.677 97.671,84.916 98.823 C 85.170 98.953,86.029 99.192,86.825 99.353 C 87.621 99.514,88.659 99.808,89.132 100.008 C 89.604 100.207,90.627 100.500,91.404 100.660 C 92.182 100.820,92.961 101.026,93.136 101.118 C 93.445 101.281,95.540 101.877,99.455 102.915 C 100.505 103.194,101.773 103.585,102.273 103.783 C 102.773 103.982,103.673 104.205,104.273 104.279 C 104.873 104.352,105.547 104.481,105.771 104.564 C 106.113 104.693,106.196 104.644,106.293 104.257 C 106.395 103.848,106.137 103.538,103.988 101.489 C 102.657 100.220,99.927 97.574,97.920 95.609 C 95.914 93.643,93.926 91.748,93.501 91.397 C 92.295 90.398,89.950 87.976,89.522 87.288 L 89.134 86.664 89.615 86.014 C 89.879 85.656,90.989 84.505,92.082 83.455 C 101.680 74.232,106.364 69.651,106.361 69.492 C 106.346 68.815,104.078 68.897,102.463 69.633 C 102.018 69.835,101.097 70.128,100.418 70.282 C 99.738 70.437,98.527 70.763,97.727 71.006 C 93.971 72.146,92.567 72.550,91.727 72.731 C 91.227 72.838,90.327 73.120,89.727 73.358 C 89.127 73.595,88.109 73.884,87.464 74.000 C 86.820 74.116,85.998 74.361,85.637 74.545 C 82.907 75.938,82.039 75.335,81.267 71.510 C 81.049 70.429,80.798 69.410,80.710 69.244 C 80.622 69.078,80.303 67.850,80.000 66.516 C 79.488 64.257,79.232 63.202,78.462 60.182 C 78.296 59.532,77.932 58.059,77.652 56.909 C 77.373 55.759,76.975 54.245,76.768 53.545 C 76.561 52.845,76.348 52.068,76.294 51.818 C 76.118 50.992,75.722 50.590,75.500 51.013 M30.000 60.728 C 30.090 61.221,30.832 62.490,32.294 64.653 C 33.482 66.412,34.741 68.327,35.091 68.911 C 35.441 69.494,36.107 70.540,36.571 71.234 C 37.036 71.928,37.518 72.692,37.643 72.930 C 37.873 73.368,39.237 74.727,39.447 74.727 C 39.509 74.727,39.785 74.298,40.060 73.773 C 40.334 73.248,40.884 72.327,41.281 71.727 C 41.678 71.127,42.164 70.286,42.362 69.857 C 42.559 69.429,42.959 68.941,43.252 68.773 C 43.641 68.550,43.813 68.286,43.892 67.795 C 43.951 67.425,44.381 66.481,44.848 65.697 C 45.998 63.768,47.091 61.641,47.091 61.335 C 47.091 60.854,46.244 60.748,40.818 60.550 C 37.818 60.441,34.586 60.274,33.636 60.180 C 32.686 60.087,31.450 60.008,30.888 60.005 L 29.867 60.000 30.000 60.728 M117.636 60.190 C 116.886 60.266,113.777 60.428,110.727 60.552 C 107.677 60.675,105.003 60.843,104.785 60.925 C 104.157 61.159,104.629 62.398,106.421 65.224 C 106.690 65.647,106.911 66.056,106.913 66.133 C 106.915 66.210,107.077 66.477,107.273 66.727 C 107.468 66.977,107.631 67.386,107.635 67.636 C 107.643 68.191,107.792 68.429,108.294 68.693 C 108.505 68.805,108.894 69.328,109.157 69.857 C 109.421 70.386,109.958 71.309,110.351 71.909 C 110.744 72.509,111.225 73.337,111.421 73.749 C 112.066 75.106,112.598 74.852,114.134 72.455 C 115.116 70.921,115.783 69.906,118.898 65.203 C 120.613 62.615,121.335 61.363,121.441 60.794 L 121.589 60.000 120.295 60.027 C 119.583 60.041,118.386 60.115,117.636 60.190 M178.091 61.988 C 175.178 62.794,172.828 64.962,171.899 67.699 L 171.457 69.000 171.456 89.958 L 171.455 110.917 171.929 111.634 C 172.645 112.716,173.512 112.789,174.628 111.862 C 175.263 111.334,176.199 111.382,177.607 112.014 C 178.614 112.466,180.903 112.674,181.818 112.397 C 183.487 111.891,185.044 111.202,185.516 110.760 C 186.953 109.415,187.527 108.696,188.228 107.364 L 188.992 105.909 189.054 99.282 C 189.131 91.056,189.022 90.342,187.344 88.091 C 186.638 87.144,186.605 86.602,187.214 85.941 C 188.949 84.061,189.133 82.966,189.060 75.000 L 189.000 68.455 188.300 67.056 C 186.338 63.134,181.902 60.932,178.091 61.988 M251.888 62.079 C 250.879 62.518,250.909 61.829,250.914 84.527 C 250.918 106.380,250.924 106.538,251.720 107.763 C 256.349 114.887,266.214 113.623,268.116 105.663 L 268.535 103.909 268.540 83.856 C 268.545 64.411,268.535 63.783,268.195 63.117 C 267.342 61.445,265.690 61.373,264.719 62.964 C 264.374 63.531,264.365 64.048,264.363 84.091 C 264.361 106.440,264.406 105.528,263.251 106.706 C 260.652 109.358,256.941 108.754,255.192 105.394 L 254.545 104.152 254.545 83.830 C 254.545 69.137,254.488 63.345,254.339 62.917 C 254.014 61.985,252.945 61.619,251.888 62.079 M182.337 66.379 C 184.897 67.658,185.091 68.311,185.091 75.635 C 185.091 82.536,185.059 82.692,183.365 84.080 C 182.067 85.144,176.641 85.547,175.655 84.654 C 175.130 84.178,175.061 71.822,175.570 69.581 C 176.282 66.450,179.465 64.944,182.337 66.379 M217.636 76.358 C 215.923 76.809,213.945 78.189,213.327 79.364 C 213.169 79.664,212.857 80.128,212.634 80.395 C 211.668 81.554,211.455 84.045,211.455 94.188 C 211.455 103.031,211.494 103.841,212.049 106.523 C 212.883 110.552,219.088 113.802,222.545 112.020 C 222.895 111.840,223.487 111.592,223.859 111.470 C 227.069 110.416,230.150 103.155,227.955 101.816 C 226.443 100.894,224.836 101.577,224.678 103.208 C 224.272 107.398,222.001 109.154,218.378 108.078 C 216.066 107.392,215.639 106.311,215.637 101.147 C 215.636 96.302,215.224 96.729,219.904 96.721 L 223.364 96.715 224.722 95.944 C 227.631 94.291,228.535 92.142,228.542 86.866 C 228.547 82.292,228.126 80.766,226.323 78.818 C 224.024 76.335,220.987 75.474,217.636 76.358 M294.428 76.130 C 293.080 76.300,293.192 74.390,293.091 98.792 L 293.000 120.636 292.388 121.942 C 291.715 123.376,290.430 124.431,289.092 124.650 C 287.197 124.959,286.046 125.894,286.311 126.909 C 287.210 130.349,293.852 128.029,296.035 123.513 L 296.634 122.273 296.726 117.255 C 296.839 111.106,296.804 111.192,298.810 112.111 C 302.554 113.824,307.770 111.298,309.472 106.946 L 310.091 105.364 310.091 94.182 L 310.091 83.000 309.501 81.544 C 307.735 77.187,303.290 75.039,298.838 76.393 C 297.342 76.848,296.502 76.836,295.706 76.348 C 295.394 76.156,295.108 76.013,295.069 76.029 C 295.031 76.045,294.743 76.091,294.428 76.130 M222.054 80.209 C 224.050 81.270,224.565 82.585,224.678 86.909 C 224.818 92.228,224.240 92.915,219.502 93.055 C 216.384 93.147,216.099 93.091,215.836 92.338 C 215.519 91.426,215.568 83.202,215.895 82.582 C 217.062 80.368,220.129 79.186,222.054 80.209 M303.106 80.067 C 305.914 81.071,305.897 80.988,305.963 93.785 C 306.032 107.151,306.086 106.830,303.567 108.074 C 300.793 109.445,297.447 107.953,296.965 105.129 C 296.776 104.027,296.772 83.943,296.960 83.059 C 297.445 80.779,300.685 79.202,303.106 80.067 M182.603 89.536 C 183.502 89.857,183.925 90.250,184.565 91.364 L 185.087 92.273 185.089 98.485 L 185.091 104.697 184.648 105.576 C 182.699 109.442,177.257 109.257,175.696 105.273 C 175.414 104.551,175.369 103.610,175.315 97.320 L 175.253 90.185 175.709 89.729 C 176.257 89.181,181.220 89.043,182.603 89.536 M332.111 94.555 C 331.515 95.263,331.495 96.100,332.053 96.928 L 332.469 97.545 346.825 97.596 C 354.721 97.623,361.360 97.603,361.577 97.550 C 362.084 97.428,362.439 96.387,362.308 95.408 C 362.117 93.988,363.331 94.097,347.104 94.041 L 332.585 93.992 332.111 94.555 M38.614 99.425 C 38.203 99.791,37.656 100.459,37.399 100.909 C 37.141 101.359,36.640 102.136,36.286 102.636 C 35.932 103.136,35.475 103.890,35.271 104.310 C 35.066 104.731,34.711 105.303,34.482 105.583 C 34.252 105.862,33.480 106.991,32.766 108.091 C 32.053 109.191,31.233 110.418,30.945 110.818 C 30.657 111.218,30.316 111.873,30.187 112.273 C 30.058 112.673,29.879 113.093,29.790 113.206 C 29.390 113.712,31.834 113.788,35.000 113.368 C 36.100 113.222,39.127 113.007,41.727 112.890 C 45.169 112.735,46.568 112.607,46.871 112.420 L 47.288 112.163 46.526 110.764 C 46.107 109.994,45.326 108.611,44.791 107.692 C 44.127 106.550,43.818 105.822,43.818 105.393 C 43.818 104.877,43.738 104.747,43.365 104.653 C 43.050 104.574,42.742 104.220,42.359 103.497 C 42.055 102.924,41.570 102.086,41.279 101.636 C 40.989 101.186,40.504 100.395,40.201 99.879 C 39.481 98.650,39.483 98.651,38.614 99.425 M111.444 99.682 C 111.136 100.207,110.583 101.114,110.215 101.697 C 109.847 102.280,109.341 103.138,109.091 103.604 C 108.841 104.070,108.411 104.559,108.136 104.690 C 107.722 104.888,107.636 105.046,107.636 105.610 C 107.636 105.984,107.562 106.369,107.471 106.464 C 107.303 106.639,105.455 109.819,105.455 109.932 C 105.455 109.967,105.209 110.393,104.909 110.881 C 103.836 112.625,103.874 112.641,109.818 112.899 C 112.368 113.009,115.317 113.214,116.372 113.354 C 118.074 113.580,119.934 113.698,121.000 113.648 C 121.585 113.620,121.917 113.340,121.697 113.059 C 121.592 112.927,121.420 112.560,121.314 112.244 C 121.208 111.928,120.153 110.224,118.970 108.457 C 117.786 106.690,116.687 105.008,116.526 104.719 C 116.365 104.430,115.787 103.516,115.241 102.687 C 114.696 101.859,114.074 100.891,113.859 100.536 C 113.500 99.942,112.318 98.727,112.097 98.727 C 112.045 98.727,111.751 99.157,111.444 99.682 M75.364 123.687 C 75.129 123.831,73.810 123.941,71.636 124.000 L 68.273 124.091 68.217 124.754 C 68.163 125.406,72.861 135.203,74.944 138.783 C 75.943 140.500,75.575 141.006,80.614 130.994 C 84.384 123.505,84.439 124.000,79.847 124.000 C 77.287 124.000,76.542 123.945,76.262 123.733 C 75.835 123.410,75.820 123.409,75.364 123.687  M -25 0 L -5 0 L -5 20 L -25 20 Z M 405 0 L 425 0 L 425 20 L 405 20 Z" stroke="none" fill="#782378" fill-rule="evenodd" transform="translate(30,0)"></path><path id="path1" d="M0.000 90.909 L 0.000 181.818 200.000 181.818 L 400.000 181.818 400.000 90.909 L 400.000 0.000 200.000 0.000 L 0.000 0.000 0.000 90.909 M76.571 34.644 C 78.316 37.625,83.469 48.280,83.419 48.801 L 83.364 49.364 79.727 49.491 C 75.439 49.642,76.356 49.638,72.001 49.521 C 68.165 49.417,67.955 49.361,68.130 48.484 C 68.269 47.788,74.711 34.847,75.276 34.128 C 75.784 33.483,75.925 33.539,76.571 34.644 M76.294 51.818 C 76.348 52.068,76.561 52.845,76.768 53.545 C 76.975 54.245,77.373 55.759,77.652 56.909 C 77.932 58.059,78.296 59.532,78.462 60.182 C 79.232 63.202,79.488 64.257,80.000 66.516 C 80.303 67.850,80.622 69.078,80.710 69.244 C 80.798 69.410,81.049 70.429,81.267 71.510 C 82.039 75.335,82.907 75.938,85.637 74.545 C 85.998 74.361,86.820 74.116,87.464 74.000 C 88.109 73.884,89.127 73.595,89.727 73.358 C 90.327 73.120,91.227 72.838,91.727 72.731 C 92.567 72.550,93.971 72.146,97.727 71.006 C 98.527 70.763,99.738 70.437,100.418 70.282 C 101.097 70.128,102.018 69.835,102.463 69.633 C 104.078 68.897,106.346 68.815,106.361 69.492 C 106.364 69.651,101.680 74.232,92.082 83.455 C 90.989 84.505,89.879 85.656,89.615 86.014 L 89.134 86.664 89.522 87.288 C 89.950 87.976,92.295 90.398,93.501 91.397 C 93.926 91.748,95.914 93.643,97.920 95.609 C 99.927 97.574,102.657 100.220,103.988 101.489 C 106.137 103.538,106.395 103.848,106.293 104.257 C 106.196 104.644,106.113 104.693,105.771 104.564 C 105.547 104.481,104.873 104.352,104.273 104.279 C 103.673 104.205,102.773 103.982,102.273 103.783 C 101.773 103.585,100.505 103.194,99.455 102.915 C 95.540 101.877,93.445 101.281,93.136 101.118 C 92.961 101.026,92.182 100.820,91.404 100.660 C 90.627 100.500,89.604 100.207,89.132 100.008 C 88.659 99.808,87.621 99.514,86.825 99.353 C 86.029 99.192,85.170 98.953,84.916 98.823 C 82.677 97.671,81.988 98.342,81.184 102.455 C 81.027 103.255,80.779 104.277,80.632 104.727 C 80.302 105.734,79.361 109.522,78.893 111.727 C 78.702 112.627,78.380 113.895,78.178 114.545 C 77.976 115.195,77.609 116.545,77.362 117.545 C 76.469 121.167,76.313 121.738,76.046 122.364 L 75.774 123.000 75.455 122.273 C 75.161 121.603,74.982 120.966,74.226 117.909 C 74.078 117.309,73.810 116.245,73.631 115.545 C 72.759 112.138,72.132 109.562,71.529 106.909 C 71.290 105.859,71.014 104.815,70.914 104.589 C 70.815 104.363,70.566 103.340,70.361 102.316 C 69.581 98.417,69.174 97.913,67.335 98.566 C 66.751 98.774,65.782 99.065,65.182 99.214 C 64.582 99.363,63.723 99.610,63.273 99.762 C 62.823 99.914,61.473 100.308,60.273 100.638 C 59.073 100.968,57.191 101.489,56.091 101.796 C 54.991 102.103,53.166 102.602,52.035 102.905 C 50.903 103.208,49.752 103.574,49.475 103.717 C 49.199 103.860,48.283 104.098,47.441 104.247 C 46.598 104.395,45.776 104.569,45.614 104.632 C 45.396 104.718,45.295 104.620,45.225 104.257 C 45.142 103.820,45.386 103.523,47.429 101.569 C 48.693 100.361,51.201 97.939,53.002 96.186 C 54.803 94.434,57.404 91.936,58.782 90.636 C 60.160 89.336,61.531 87.919,61.828 87.487 L 62.369 86.701 61.960 86.123 C 61.514 85.494,59.274 83.234,56.991 81.110 C 56.196 80.371,53.826 78.080,51.725 76.019 C 49.623 73.959,47.266 71.683,46.487 70.962 C 44.361 68.996,45.296 68.329,48.545 69.493 C 49.095 69.690,50.159 70.007,50.909 70.198 C 51.659 70.388,52.682 70.679,53.182 70.845 C 54.099 71.148,55.477 71.534,59.238 72.542 C 60.369 72.845,61.518 73.208,61.790 73.349 C 62.063 73.490,62.931 73.739,63.718 73.901 C 64.506 74.064,65.526 74.357,65.984 74.553 C 68.821 75.763,69.558 75.274,70.252 71.727 C 70.429 70.827,70.694 69.748,70.842 69.330 C 70.991 68.911,71.303 67.684,71.537 66.603 C 72.098 64.009,72.659 61.677,73.125 60.000 C 73.334 59.250,73.659 57.941,73.848 57.091 C 74.038 56.241,74.391 54.891,74.635 54.091 C 74.878 53.291,75.131 52.350,75.196 52.000 C 75.468 50.553,76.006 50.464,76.294 51.818 M33.636 60.180 C 34.586 60.274,37.818 60.441,40.818 60.550 C 46.244 60.748,47.091 60.854,47.091 61.335 C 47.091 61.641,45.998 63.768,44.848 65.697 C 44.381 66.481,43.951 67.425,43.892 67.795 C 43.813 68.286,43.641 68.550,43.252 68.773 C 42.959 68.941,42.559 69.429,42.362 69.857 C 42.164 70.286,41.678 71.127,41.281 71.727 C 40.884 72.327,40.334 73.248,40.060 73.773 C 39.785 74.298,39.509 74.727,39.447 74.727 C 39.237 74.727,37.873 73.368,37.643 72.930 C 37.518 72.692,37.036 71.928,36.571 71.234 C 36.107 70.540,35.441 69.494,35.091 68.911 C 34.741 68.327,33.482 66.412,32.294 64.653 C 30.832 62.490,30.090 61.221,30.000 60.728 L 29.867 60.000 30.888 60.005 C 31.450 60.008,32.686 60.087,33.636 60.180 M121.441 60.794 C 121.335 61.363,120.613 62.615,118.898 65.203 C 115.783 69.906,115.116 70.921,114.134 72.455 C 112.598 74.852,112.066 75.106,111.421 73.749 C 111.225 73.337,110.744 72.509,110.351 71.909 C 109.958 71.309,109.421 70.386,109.157 69.857 C 108.894 69.328,108.505 68.805,108.294 68.693 C 107.792 68.429,107.643 68.191,107.635 67.636 C 107.631 67.386,107.468 66.977,107.273 66.727 C 107.077 66.477,106.915 66.210,106.913 66.133 C 106.911 66.056,106.690 65.647,106.421 65.224 C 104.629 62.398,104.157 61.159,104.785 60.925 C 105.003 60.843,107.677 60.675,110.727 60.552 C 113.777 60.428,116.886 60.266,117.636 60.190 C 118.386 60.115,119.583 60.041,120.295 60.027 L 121.589 60.000 121.441 60.794 M183.909 62.606 C 185.758 63.485,187.290 65.038,188.300 67.056 L 189.000 68.455 189.060 75.000 C 189.133 82.966,188.949 84.061,187.214 85.941 C 186.605 86.602,186.638 87.144,187.344 88.091 C 189.022 90.342,189.131 91.056,189.054 99.282 L 188.992 105.909 188.228 107.364 C 187.527 108.696,186.953 109.415,185.516 110.760 C 185.044 111.202,183.487 111.891,181.818 112.397 C 180.903 112.674,178.614 112.466,177.607 112.014 C 176.199 111.382,175.263 111.334,174.628 111.862 C 173.512 112.789,172.645 112.716,171.929 111.634 L 171.455 110.917 171.456 89.958 L 171.457 69.000 171.899 67.699 C 172.828 64.962,175.178 62.794,178.091 61.988 C 179.567 61.579,182.378 61.877,183.909 62.606 M253.527 62.071 C 254.581 62.512,254.545 61.759,254.545 83.830 L 254.545 104.152 255.192 105.394 C 256.941 108.754,260.652 109.358,263.251 106.706 C 264.406 105.528,264.361 106.440,264.363 84.091 C 264.365 64.048,264.374 63.531,264.719 62.964 C 265.690 61.373,267.342 61.445,268.195 63.117 C 268.535 63.783,268.545 64.411,268.540 83.856 L 268.535 103.909 268.116 105.663 C 266.733 111.451,260.308 114.209,255.158 111.224 C 253.219 110.100,251.485 108.003,251.094 106.308 C 250.829 105.159,250.849 63.681,251.115 62.917 C 251.441 61.984,252.461 61.626,253.527 62.071 M178.144 66.330 C 175.500 67.595,175.273 68.487,175.273 77.599 C 175.273 85.594,175.068 84.965,177.701 85.061 C 181.879 85.213,183.605 84.581,184.650 82.518 C 185.298 81.241,185.343 70.125,184.707 68.856 C 183.340 66.135,180.686 65.113,178.144 66.330 M222.202 76.302 C 226.599 77.295,228.549 80.544,228.542 86.866 C 228.535 92.142,227.631 94.291,224.722 95.944 L 223.364 96.715 219.904 96.721 C 215.224 96.729,215.636 96.302,215.637 101.147 C 215.639 106.311,216.066 107.392,218.378 108.078 C 222.001 109.154,224.272 107.398,224.678 103.208 C 224.836 101.577,226.443 100.894,227.955 101.816 C 230.150 103.155,227.069 110.416,223.859 111.470 C 223.487 111.592,222.895 111.840,222.545 112.020 C 219.088 113.802,212.883 110.552,212.049 106.523 C 211.494 103.841,211.455 103.031,211.455 94.188 C 211.455 84.045,211.668 81.554,212.634 80.395 C 212.857 80.128,213.169 79.664,213.327 79.364 C 214.625 76.897,218.665 75.503,222.202 76.302 M295.706 76.348 C 296.502 76.836,297.342 76.848,298.838 76.393 C 303.290 75.039,307.735 77.187,309.501 81.544 L 310.091 83.000 310.091 94.182 L 310.091 105.364 309.472 106.946 C 307.770 111.298,302.554 113.824,298.810 112.111 C 296.804 111.192,296.839 111.106,296.726 117.255 L 296.634 122.273 296.035 123.513 C 293.852 128.029,287.210 130.349,286.311 126.909 C 286.046 125.894,287.197 124.959,289.092 124.650 C 290.430 124.431,291.715 123.376,292.388 121.942 L 293.000 120.636 293.091 98.792 C 293.192 74.390,293.080 76.300,294.428 76.130 C 294.743 76.091,295.031 76.045,295.069 76.029 C 295.108 76.013,295.394 76.156,295.706 76.348 M218.851 79.984 C 218.108 80.139,216.384 81.654,215.895 82.582 C 215.568 83.202,215.519 91.426,215.836 92.338 C 216.099 93.091,216.384 93.147,219.502 93.055 C 224.240 92.915,224.818 92.228,224.678 86.909 C 224.529 81.201,222.810 79.158,218.851 79.984 M300.091 79.987 C 298.847 80.287,297.207 81.896,296.960 83.059 C 296.772 83.943,296.776 104.027,296.965 105.129 C 297.711 109.492,304.486 109.844,305.724 105.583 C 306.238 103.815,306.057 83.312,305.517 82.182 C 304.644 80.354,302.375 79.436,300.091 79.987 M175.709 89.729 L 175.253 90.185 175.315 97.320 C 175.369 103.610,175.414 104.551,175.696 105.273 C 177.257 109.257,182.699 109.442,184.648 105.576 L 185.091 104.697 185.089 98.485 L 185.087 92.273 184.565 91.364 C 183.501 89.512,182.914 89.291,179.037 89.281 C 176.209 89.273,176.158 89.280,175.709 89.729 M361.917 94.384 C 362.616 95.083,362.371 97.358,361.577 97.550 C 361.360 97.603,354.721 97.623,346.825 97.596 L 332.469 97.545 332.053 96.928 C 331.495 96.100,331.515 95.263,332.111 94.555 L 332.585 93.992 347.104 94.041 C 360.176 94.086,361.653 94.120,361.917 94.384 M40.201 99.879 C 40.504 100.395,40.989 101.186,41.279 101.636 C 41.570 102.086,42.055 102.924,42.359 103.497 C 42.742 104.220,43.050 104.574,43.365 104.653 C 43.738 104.747,43.818 104.877,43.818 105.393 C 43.818 105.822,44.127 106.550,44.791 107.692 C 45.326 108.611,46.107 109.994,46.526 110.764 L 47.288 112.163 46.871 112.420 C 46.568 112.607,45.169 112.735,41.727 112.890 C 39.127 113.007,36.100 113.222,35.000 113.368 C 31.834 113.788,29.390 113.712,29.790 113.206 C 29.879 113.093,30.058 112.673,30.187 112.273 C 30.316 111.873,30.657 111.218,30.945 110.818 C 31.233 110.418,32.053 109.191,32.766 108.091 C 33.480 106.991,34.252 105.862,34.482 105.583 C 34.711 105.303,35.066 104.731,35.271 104.310 C 35.475 103.890,35.932 103.136,36.286 102.636 C 36.640 102.136,37.141 101.359,37.399 100.909 C 37.899 100.036,39.264 98.701,39.505 98.849 C 39.585 98.899,39.898 99.362,40.201 99.879 M112.830 99.309 C 113.182 99.628,113.645 100.181,113.859 100.536 C 114.074 100.891,114.696 101.859,115.241 102.687 C 115.787 103.516,116.365 104.430,116.526 104.719 C 116.687 105.008,117.786 106.690,118.970 108.457 C 120.153 110.224,121.208 111.928,121.314 112.244 C 121.420 112.560,121.592 112.927,121.697 113.059 C 121.917 113.340,121.585 113.620,121.000 113.648 C 119.934 113.698,118.074 113.580,116.372 113.354 C 115.317 113.214,112.368 113.009,109.818 112.899 C 103.874 112.641,103.836 112.625,104.909 110.881 C 105.209 110.393,105.455 109.967,105.455 109.932 C 105.455 109.819,107.303 106.639,107.471 106.464 C 107.562 106.369,107.636 105.984,107.636 105.610 C 107.636 105.046,107.722 104.888,108.136 104.690 C 108.411 104.559,108.841 104.070,109.091 103.604 C 109.341 103.138,109.847 102.280,110.215 101.697 C 110.583 101.114,111.136 100.207,111.444 99.682 C 112.104 98.555,112.025 98.576,112.830 99.309 M76.262 123.733 C 76.542 123.945,77.287 124.000,79.847 124.000 C 84.439 124.000,84.384 123.505,80.614 130.994 C 75.575 141.006,75.943 140.500,74.944 138.783 C 72.861 135.203,68.163 125.406,68.217 124.754 L 68.273 124.091 71.636 124.000 C 73.810 123.941,75.129 123.831,75.364 123.687 C 75.820 123.409,75.835 123.410,76.262 123.733  M -25 0 L -5 0 L -5 20 L -25 20 Z M 405 0 L 425 0 L 425 20 L 405 20 Z" stroke="none" fill="#fbfbfb" fill-rule="evenodd" transform="translate(490,0)"></path></g></svg>